<svg xmlns="http://www.w3.org/2000/svg" xmlns:xlink="http://www.w3.org/1999/xlink" viewBox="0,0,256,256" width="50px" height="50px" fill-rule="nonzero"><g transform=""><g fill="#92e3a9" fill-rule="nonzero" stroke="none" stroke-width="1" stroke-linecap="butt" stroke-linejoin="miter" stroke-miterlimit="10" stroke-dasharray="" stroke-dashoffset="0" font-family="none" font-weight="none" font-size="none" text-anchor="none" style="mix-blend-mode: normal"><path d="M0,256v-256h256v256z" id="bgRectangle"></path></g><g fill="none" fill-rule="nonzero" stroke="none" stroke-width="1" stroke-linecap="butt" stroke-linejoin="miter" stroke-miterlimit="10" stroke-dasharray="" stroke-dashoffset="0" font-family="none" font-weight="none" font-size="none" text-anchor="none" style="mix-blend-mode: normal"><g transform="scale(2.56,2.56)"><path d="M13,27c-1.10457,0 -2,0.89543 -2,2c0,1.10457 0.89543,2 2,2c1.10457,0 2,-0.89543 2,-2c0,-1.10457 -0.89543,-2 -2,-2z" fill="#ee3e54"></path><path d="M77,12c-0.55228,0 -1,0.44772 -1,1c0,0.55228 0.44772,1 1,1c0.55228,0 1,-0.44772 1,-1c0,-0.55228 -0.44772,-1 -1,-1z" fill="#f1bc19"></path><path d="M50,13c-20.43454,0 -37,16.56546 -37,37c0,20.43454 16.56546,37 37,37c20.43454,0 37,-16.56546 37,-37c0,-20.43454 -16.56546,-37 -37,-37z" fill="#fce0a2"></path><path d="M83,11c-2.20914,0 -4,1.79086 -4,4c0,2.20914 1.79086,4 4,4c2.20914,0 4,-1.79086 4,-4c0,-2.20914 -1.79086,-4 -4,-4z" fill="#f1bc19"></path><path d="M87,22c-1.10457,0 -2,0.89543 -2,2c0,1.10457 0.89543,2 2,2c1.10457,0 2,-0.89543 2,-2c0,-1.10457 -0.89543,-2 -2,-2z" fill="#ee3e54"></path><path d="M81,74c-1.10457,0 -2,0.89543 -2,2c0,1.10457 0.89543,2 2,2c1.10457,0 2,-0.89543 2,-2c0,-1.10457 -0.89543,-2 -2,-2zM15,59c-2.20914,0 -4,1.79086 -4,4c0,2.20914 1.79086,4 4,4c2.20914,0 4,-1.79086 4,-4c0,-2.20914 -1.79086,-4 -4,-4z" fill="#fbcd59"></path><path d="M25,85c-1.10457,0 -2,0.89543 -2,2c0,1.10457 0.89543,2 2,2c1.10457,0 2,-0.89543 2,-2c0,-1.10457 -0.89543,-2 -2,-2z" fill="#ee3e54"></path><path d="M18.5,51c-1.38071,0 -2.5,1.11929 -2.5,2.5c0,1.38071 1.11929,2.5 2.5,2.5c1.38071,0 2.5,-1.11929 2.5,-2.5c0,-1.38071 -1.11929,-2.5 -2.5,-2.5z" fill="#ffffff"></path><path d="M21,66c-0.55228,0 -1,0.44772 -1,1c0,0.55228 0.44772,1 1,1c0.55228,0 1,-0.44772 1,-1c0,-0.55228 -0.44772,-1 -1,-1z" fill="#f1bc19"></path><path d="M80,33c-0.55228,0 -1,0.44772 -1,1c0,0.55228 0.44772,1 1,1c0.55228,0 1,-0.44772 1,-1c0,-0.55228 -0.44772,-1 -1,-1z" fill="#ffffff"></path><path d="M58.966,32.111c-3.797,-5.423 -11.271,-6.74 -16.693,-2.943c-5.423,3.797 -6.74,11.271 -2.943,16.693c3.797,5.422 11.271,6.74 16.693,2.943c5.422,-3.796 6.74,-11.27 2.943,-16.693zM47.999,35.625c-0.629,0 -5.37,0 -6,0c-0.897,0 -1.625,-0.728 -1.625,-1.625c0,-0.897 0.728,-1.625 1.625,-1.625c0.63,0 5.371,0 6,0c0.897,0 1.625,0.728 1.625,1.625c0,0.897 -0.728,1.625 -1.625,1.625z" fill="#00a5a5"></path><path d="M59.827,45.531c-0.066,0.046 -7.896,5.529 -8.182,5.729c-0.678,0.475 -0.843,1.409 -0.368,2.087c0.475,0.678 1.409,0.843 2.087,0.368c0.145,-0.101 1.514,-1.06 2.046,-1.432l3.032,4.331l0.119,0.169l-0.036,0.204l-0.209,1.187l1.595,0.281l0.492,0.087l-0.087,0.492l-0.281,1.595l1.595,0.281l0.492,0.087l-0.087,0.492l-0.281,1.595l1.595,0.281l0.492,0.087l-0.087,0.492l-0.281,1.595l5.024,1.96l0.003,-0.003l0.006,-0.013l-0.006,-5.057c0,-0.103 -0.031,-0.202 -0.09,-0.286l-8.907,-12.72c0,0 1.775,-1.243 2.046,-1.432c0.678,-0.475 0.843,-1.409 0.368,-2.087c-0.478,-0.68 -1.412,-0.845 -2.09,-0.37z" fill="#ce942b"></path><path d="M59.827,45.531c-0.029,0.021 -2.086,1.46 -3.477,2.435l12.151,17.354l-0.004,-2.895c0,-0.103 -0.031,-0.202 -0.09,-0.286l-8.907,-12.72c0,0 1.775,-1.243 2.046,-1.432c0.678,-0.475 0.843,-1.409 0.368,-2.087c-0.475,-0.679 -1.409,-0.844 -2.087,-0.369z" fill="#e2ad17"></path><path d="M59.541,45.122c-0.299,0.21 -7.971,5.581 -8.182,5.729c-0.904,0.633 -1.123,1.878 -0.491,2.782c0.633,0.904 1.878,1.123 2.782,0.491c0.167,-0.117 1.636,-1.146 1.636,-1.146l2.746,3.922l-0.209,1.187c-0.048,0.272 0.133,0.531 0.405,0.578l1.595,0.281l-0.281,1.595c-0.048,0.272 0.133,0.531 0.405,0.578l1.595,0.281l-0.281,1.595c-0.048,0.272 0.133,0.531 0.405,0.578l1.595,0.281l-0.281,1.595c-0.041,0.234 0.088,0.466 0.31,0.552l5.033,1.963c0.162,0.063 0.336,0.036 0.468,-0.056c0.009,-0.006 0.012,-0.019 0.02,-0.026c0.057,-0.047 0.103,-0.104 0.135,-0.172c0.006,-0.012 0.018,-0.017 0.023,-0.029c0.028,-0.073 0.034,-0.148 0.029,-0.221l-0.001,-5.037c0,-0.205 -0.063,-0.405 -0.181,-0.573l-8.62,-12.311c0.229,-0.16 1.343,-0.941 1.636,-1.146c0.904,-0.633 1.123,-1.878 0.491,-2.782c-0.633,-0.903 -1.878,-1.122 -2.782,-0.489zM61.26,47.576l-1.636,1.146c-0.452,0.316 -0.562,0.939 -0.245,1.391l8.62,12.311l0.001,4.343l-3.965,-1.547l0.297,-1.683c0.048,-0.272 -0.133,-0.531 -0.405,-0.578l-1.595,-0.281l0.281,-1.595c0.048,-0.272 -0.133,-0.531 -0.405,-0.578l-1.595,-0.281l0.281,-1.595c0.048,-0.272 -0.133,-0.531 -0.405,-0.578l-1.595,-0.281l0.159,-0.899c0.023,-0.13 -0.007,-0.265 -0.083,-0.373l-2.864,-4.091c-0.316,-0.452 -0.939,-0.562 -1.391,-0.245l-1.636,1.146c-0.451,0.316 -1.075,0.206 -1.391,-0.245c-0.316,-0.451 -0.206,-1.075 0.245,-1.391c0.082,-0.058 8.012,-5.61 8.182,-5.729c0.451,-0.316 1.075,-0.206 1.391,0.245c0.316,0.451 0.205,1.072 -0.246,1.388z" fill="#472b29"></path><path d="M61.649,55.784c-0.079,0 -0.156,-0.037 -0.205,-0.106l-4.297,-6.137c-0.08,-0.113 -0.052,-0.269 0.061,-0.348c0.113,-0.08 0.269,-0.052 0.348,0.061l4.297,6.137c0.08,0.113 0.052,0.269 -0.061,0.348c-0.043,0.031 -0.093,0.045 -0.143,0.045zM63.941,59.057c-0.079,0 -0.156,-0.037 -0.205,-0.106l-0.859,-1.227c-0.08,-0.113 -0.052,-0.269 0.061,-0.348c0.113,-0.08 0.269,-0.052 0.348,0.061l0.859,1.227c0.08,0.113 0.052,0.269 -0.061,0.348c-0.043,0.03 -0.093,0.045 -0.143,0.045zM66.233,62.33c-0.079,0 -0.156,-0.037 -0.205,-0.106l-0.859,-1.227c-0.08,-0.113 -0.052,-0.269 0.061,-0.348c0.113,-0.079 0.269,-0.053 0.348,0.061l0.859,1.227c0.08,0.113 0.052,0.269 -0.061,0.348c-0.043,0.03 -0.093,0.045 -0.143,0.045zM51.931,51.67l8.184,-5.73c2.72,-4.294 2.767,-9.977 -0.33,-14.401c-4.113,-5.874 -12.21,-7.302 -18.084,-3.189c-5.874,4.113 -7.302,12.21 -3.189,18.084c3.097,4.424 8.453,6.323 13.419,5.236zM42.502,29.495c5.233,-3.664 12.472,-2.388 16.137,2.845c3.664,5.233 2.388,12.472 -2.845,16.137c-5.233,3.665 -12.472,2.388 -16.137,-2.845c-3.665,-5.234 -2.388,-12.473 2.845,-16.137z" fill="#472b29"></path><path d="M52.249,50.625h0.25v3.375h-0.25zM52.874,50.125h0.25v3.75h-0.25zM53.499,49.75h0.25v3.375h-0.25zM54.249,52.125c-0.069,0 -0.125,-0.056 -0.125,-0.125v-2.75c0,-0.069 0.056,-0.125 0.125,-0.125c0.069,0 0.125,0.056 0.125,0.125v2.75c0,0.069 -0.057,0.125 -0.125,0.125zM54.874,51.125c-0.069,0 -0.125,-0.056 -0.125,-0.125l0.001,-2.125c0,-0.069 0.056,-0.125 0.125,-0.125c0.069,0 0.125,0.056 0.125,0.125l-0.001,2.125c0,0.069 -0.057,0.125 -0.125,0.125z" fill="#472b29"></path><path d="M45,28c-6.627,0 -12,5.373 -12,12c0,6.627 5.373,12 12,12c6.627,0 12,-5.373 12,-12c0,-6.627 -5.373,-12 -12,-12zM48,35.625c-0.629,0 -5.37,0 -6,0c-0.897,0 -1.625,-0.728 -1.625,-1.625c0,-0.897 0.728,-1.625 1.625,-1.625c0.63,0 5.371,0 6,0c0.897,0 1.625,0.728 1.625,1.625c0,0.897 -0.728,1.625 -1.625,1.625z" fill="#ee3e54"></path><path d="M47.75,47.75h-5.5c-2.209,0 -4,-1.791 -4,-4v-1.5c0,-2.209 1.791,-4 4,-4h5.5c2.209,0 4,1.791 4,4v1.5c0,2.209 -1.791,4 -4,4z" fill="#db2e4c"></path><path d="M50,51.5c-0.081,0 -9.65,0 -10,0c-0.828,0 -1.5,0.672 -1.5,1.5c0,0.828 0.672,1.5 1.5,1.5c0.177,0 1.85,0 2.5,0v5.293v0.207l-0.146,0.146l-0.854,0.854l1.146,1.146l0.354,0.354l-0.354,0.354l-1.146,1.146l1.146,1.146l0.354,0.354l-0.354,0.354l-1.146,1.146l1.146,1.146l0.354,0.354l-0.354,0.354l-1.146,1.146l2.995,4.492h0.004l0.012,-0.007l2.899,-4.151c0.059,-0.084 0.09,-0.184 0.09,-0.287v-15.547c0,0 2.169,0 2.5,0c0.828,0 1.5,-0.672 1.5,-1.5c0,-0.828 -0.672,-1.5 -1.5,-1.5z" fill="#f1bc19"></path><path d="M50,51.5c-0.036,0 -2.549,0 -4.25,0v21.21l1.66,-2.377c0.059,-0.084 0.09,-0.184 0.09,-0.287v-15.546c0,0 2.169,0 2.5,0c0.828,0 1.5,-0.672 1.5,-1.5c0,-0.828 -0.672,-1.5 -1.5,-1.5z" fill="#fbcd59"></path><path d="M50,51c-0.366,0 -9.742,0 -10,0c-1.105,0 -2,0.895 -2,2c0,1.105 0.895,2 2,2c0.204,0 2,0 2,0v4.793l-0.854,0.854c-0.195,0.195 -0.195,0.512 0,0.707l1.146,1.146l-1.146,1.146c-0.195,0.195 -0.195,0.512 0,0.707l1.146,1.146l-1.146,1.146c-0.195,0.195 -0.195,0.512 0,0.707l1.146,1.146l-1.146,1.146c-0.168,0.168 -0.195,0.433 -0.063,0.631l3,4.5c0.097,0.147 0.256,0.225 0.417,0.225c0.011,0 0.021,-0.009 0.031,-0.01c0.073,-0.006 0.144,-0.026 0.21,-0.064c0.011,-0.006 0.025,-0.003 0.036,-0.011c0.065,-0.044 0.113,-0.101 0.15,-0.165l2.892,-4.131c0.118,-0.167 0.181,-0.367 0.181,-0.572v-15.047c0.28,0 1.642,0 2,0c1.105,0 2,-0.895 2,-2c0,-1.105 -0.895,-2 -2,-2zM50,54h-2c-0.552,0 -1,0.448 -1,1v15.047l-2.493,3.562l-2.363,-3.545l1.21,-1.21c0.195,-0.195 0.195,-0.512 0,-0.707l-1.147,-1.147l1.146,-1.146c0.195,-0.195 0.195,-0.512 0,-0.707l-1.146,-1.147l1.146,-1.146c0.195,-0.195 0.195,-0.512 0,-0.707l-1.146,-1.147l0.646,-0.646c0.094,-0.094 0.147,-0.221 0.147,-0.354v-5c0,-0.552 -0.448,-1 -1,-1h-2c-0.551,0 -1,-0.449 -1,-1c0,-0.551 0.449,-1 1,-1c0.101,0 9.792,0 10,0c0.551,0 1,0.449 1,1c0,0.551 -0.449,1 -1,1z" fill="#472b29"></path><path d="M45.75,61c-0.138,0 -0.25,-0.112 -0.25,-0.25v-7.5c0,-0.138 0.112,-0.25 0.25,-0.25c0.138,0 0.25,0.112 0.25,0.25v7.5c0,0.138 -0.112,0.25 -0.25,0.25zM45.75,65c-0.138,0 -0.25,-0.112 -0.25,-0.25v-1.5c0,-0.138 0.112,-0.25 0.25,-0.25c0.138,0 0.25,0.112 0.25,0.25v1.5c0,0.138 -0.112,0.25 -0.25,0.25zM45.75,69c-0.138,0 -0.25,-0.112 -0.25,-0.25v-1.5c0,-0.138 0.112,-0.25 0.25,-0.25c0.138,0 0.25,0.112 0.25,0.25v1.5c0,0.138 -0.112,0.25 -0.25,0.25zM39.999,52h10.002c4.697,-1.96 7.999,-6.593 7.999,-12c0,-7.18 -5.82,-13 -13,-13c-7.18,0 -13,5.82 -13,13c0,5.407 3.302,10.04 7.999,12zM45,28.4c6.396,0 11.6,5.204 11.6,11.6c0,6.396 -5.204,11.6 -11.6,11.6c-6.396,0 -11.6,-5.204 -11.6,-11.6c0,-6.396 5.204,-11.6 11.6,-11.6z" fill="#472b29"></path><path d="M48,36h-6c-1.103,0 -2,-0.897 -2,-2c0,-1.103 0.897,-2 2,-2h6c1.103,0 2,0.897 2,2c0,1.103 -0.897,2 -2,2zM42,32.75c-0.689,0 -1.25,0.561 -1.25,1.25c0,0.689 0.561,1.25 1.25,1.25h6c0.689,0 1.25,-0.561 1.25,-1.25c0,-0.689 -0.561,-1.25 -1.25,-1.25zM51.195,46c-0.043,0 -0.086,-0.011 -0.126,-0.034c-0.119,-0.069 -0.16,-0.222 -0.09,-0.342c0.346,-0.593 0.521,-1.224 0.521,-1.874v-1.5c0,-0.138 0.112,-0.25 0.25,-0.25c0.138,0 0.25,0.112 0.25,0.25v1.5c0,0.74 -0.198,1.455 -0.589,2.126c-0.046,0.08 -0.13,0.124 -0.216,0.124zM47.75,48h-5.5c-2.343,0 -4.25,-1.907 -4.25,-4.25v-1.5c0,-2.343 1.907,-4.25 4.25,-4.25h5.5c1.736,0 3.281,1.042 3.935,2.656c0.052,0.128 -0.01,0.273 -0.138,0.326c-0.128,0.05 -0.274,-0.01 -0.326,-0.138c-0.576,-1.424 -1.939,-2.344 -3.471,-2.344h-5.5c-2.068,0 -3.75,1.682 -3.75,3.75v1.5c0,2.068 1.682,3.75 3.75,3.75h5.5c0.138,0 0.25,0.112 0.25,0.25c0,0.138 -0.112,0.25 -0.25,0.25z" fill="#472b29"></path><path d="M45.499,34c1.244,0 2.371,-0.562 3.185,-1.469c-0.209,-0.098 -0.439,-0.156 -0.685,-0.156c-0.083,0 -0.165,0 -0.246,0c-0.629,0.541 -1.404,0.875 -2.254,0.875c-2.068,0 -3.75,-1.907 -3.75,-4.25c0,-2.343 1.682,-4.25 3.75,-4.25c1.05,0 1.998,0.495 2.68,1.286c0.299,-0.023 0.599,-0.034 0.901,-0.035c-0.822,-1.208 -2.113,-2.001 -3.581,-2.001c-2.485,0 -4.5,2.239 -4.5,5c0,2.761 2.014,5 4.5,5z" fill="#472b29"></path></g></g></g></svg>